<?xml version="1.0" standalone="no"?>
<!DOCTYPE svg PUBLIC "-//W3C//DTD SVG 20010904//EN"
 "http://www.w3.org/TR/2001/REC-SVG-20010904/DTD/svg10.dtd">
<svg version="1.0" xmlns="http://www.w3.org/2000/svg"
 width="512.000000pt" height="512.000000pt" viewBox="0 0 512.000000 512.000000"
 preserveAspectRatio="xMidYMid meet">
<metadata>
Created by potrace 1.14, written by Peter Selinger 2001-2017
</metadata>
<g transform="translate(0.000000,512.000000) scale(0.100000,-0.100000)"
fill="#000000" stroke="none">
<path d="M2840 5069 c-9 -16 -14 -18 -26 -8 -8 7 -14 7 -14 1 0 -5 -8 -8 -19
-5 -10 2 -25 -3 -34 -11 -8 -9 -27 -16 -42 -16 -14 0 -24 -4 -20 -9 3 -5 1
-13 -5 -16 -6 -4 -9 -1 -8 5 4 15 -29 22 -38 9 -3 -5 0 -9 7 -9 7 0 9 -3 6 -7
-4 -3 -17 2 -29 13 -16 13 -19 14 -10 2 9 -11 10 -18 2 -23 -5 -3 -10 -1 -10
6 0 8 -4 8 -15 -1 -8 -7 -15 -9 -15 -5 0 5 -8 1 -17 -7 -22 -18 -79 -39 -87
-31 -3 4 -6 -1 -6 -11 0 -9 -5 -14 -10 -11 -6 4 -7 11 -4 17 4 7 2 8 -5 4 -6
-4 -8 -12 -5 -18 5 -7 0 -9 -14 -6 -12 4 -23 2 -23 -3 -1 -5 -2 -13 -3 -18 0
-5 -4 -13 -8 -17 -4 -3 -5 4 -3 17 4 23 4 24 -11 4 -8 -11 -23 -20 -34 -20
-10 0 -22 -4 -27 -9 -4 -5 -3 -6 3 -3 7 4 14 1 17 -6 3 -9 -2 -13 -16 -12 -28
3 -48 -5 -42 -15 6 -10 -33 -25 -52 -22 -7 2 -13 -2 -13 -8 0 -6 4 -9 9 -5 5
3 12 2 15 -3 2 -4 -7 -9 -21 -10 -31 -2 -45 -11 -38 -23 4 -5 -4 -9 -16 -9
-19 0 -20 -2 -8 -17 7 -10 10 -15 5 -11 -12 10 -48 -11 -41 -23 4 -5 1 -8 -7
-7 -7 2 -12 -4 -10 -12 2 -8 0 -12 -4 -8 -4 4 -13 0 -21 -10 -14 -16 -14 -16
-8 3 6 20 6 20 -13 0 -20 -20 -20 -41 0 -29 7 5 8 2 4 -5 -5 -7 -14 -10 -22
-7 -12 5 -19 -10 -16 -35 1 -4 -7 -5 -17 -2 -10 3 -22 0 -25 -6 -4 -6 -2 -11
4 -11 6 0 9 -4 5 -10 -3 -5 -11 -7 -18 -4 -11 4 -15 -6 -19 -53 -1 -7 -5 -10
-9 -7 -5 2 -6 12 -3 22 5 14 4 15 -5 2 -6 -8 -11 -25 -11 -37 0 -13 -6 -23
-14 -23 -9 0 -16 -12 -18 -27 -2 -16 -9 -29 -15 -29 -7 -1 -16 -3 -20 -4 -5
-1 -12 -2 -16 -1 -5 1 -6 -3 -2 -9 3 -6 11 -8 16 -5 5 4 9 1 9 -4 0 -6 -8 -11
-17 -11 -15 0 -16 -2 -3 -10 13 -8 13 -10 -2 -10 -11 0 -16 -6 -13 -20 2 -11
0 -22 -5 -25 -5 -3 -7 -13 -4 -23 5 -15 5 -15 -6 1 -6 9 -8 22 -4 29 4 7 3 8
-4 4 -6 -4 -10 -22 -8 -40 1 -23 -3 -37 -15 -44 -19 -12 -31 -82 -14 -82 6 0
6 -3 -1 -8 -6 -4 -10 -16 -8 -27 l3 -20 -16 20 c-14 19 -15 18 -11 -17 2 -21
1 -38 -3 -38 -3 0 -5 -11 -4 -25 3 -26 -10 -35 -18 -12 -3 6 -4 2 -4 -9 1 -15
6 -20 16 -16 11 4 9 -2 -5 -21 -10 -14 -27 -27 -36 -27 -12 0 -15 -5 -11 -17
4 -10 2 -14 -5 -9 -6 3 -13 2 -16 -3 -4 -5 -17 -8 -31 -5 -13 2 -27 -1 -31 -7
-5 -8 -3 -9 6 -4 9 5 11 4 6 -3 -10 -17 -26 -15 -26 2 0 8 -9 17 -19 21 -13 4
-18 13 -17 30 2 13 0 24 -3 23 -14 -3 -40 15 -35 23 3 5 -2 9 -12 9 -13 0 -14
3 -5 13 13 16 5 28 -15 20 -13 -5 -19 8 -15 30 1 5 -3 6 -9 2 -5 -3 -10 -1
-10 5 0 6 -5 8 -12 4 -7 -5 -9 -2 -6 7 3 8 0 20 -8 26 -10 10 -13 10 -17 0 -2
-7 -8 4 -12 23 -7 30 -9 32 -16 15 -7 -19 -8 -19 -8 1 -1 12 -9 28 -18 35 -16
13 -17 12 -4 -4 12 -15 12 -17 -3 -11 -9 3 -16 11 -17 18 0 6 -4 2 -9 -9 -8
-18 -9 -18 -10 5 -1 25 -1 25 -10 3 -5 -13 -12 -23 -14 -23 -3 0 -2 8 1 17 6
15 5 16 -9 3 -8 -8 -13 -21 -10 -29 4 -10 1 -12 -9 -6 -8 4 -11 4 -6 0 4 -5 0
-16 -9 -26 -10 -11 -12 -19 -5 -24 7 -4 8 -13 3 -23 -5 -9 -5 -30 -1 -47 7
-32 13 -17 9 25 -3 34 8 22 13 -15 2 -17 -1 -36 -7 -44 -8 -11 -8 -13 2 -7 11
7 17 -11 13 -37 -1 -5 3 -6 9 -2 6 3 8 10 5 15 -3 5 -1 11 5 15 5 3 10 -3 10
-14 0 -12 7 -22 15 -22 29 -3 33 -4 42 -13 4 -5 4 -7 -2 -4 -5 3 -19 2 -30 -3
-18 -7 -18 -8 5 -8 27 -1 66 -21 42 -21 -7 0 -11 -4 -7 -10 3 -5 11 -7 18 -4
7 2 22 -4 32 -16 10 -11 13 -20 7 -20 -6 0 -12 5 -14 12 -3 7 -7 5 -11 -6 -4
-10 -3 -15 3 -11 6 3 10 1 10 -5 0 -6 5 -8 12 -4 7 4 8 3 4 -5 -4 -6 -11 -9
-15 -6 -5 2 -17 -3 -27 -11 -17 -14 -17 -15 -1 -10 11 3 16 2 12 -4 -3 -6 -15
-10 -25 -10 -10 0 -22 -5 -26 -12 -5 -7 -2 -9 7 -4 8 4 5 0 -6 -8 -11 -9 -25
-14 -32 -12 -7 3 -12 2 -12 -2 1 -4 1 -18 -1 -32 -1 -23 -2 -24 -10 -5 -9 19
-9 19 -16 -3 -4 -13 -12 -21 -19 -18 -18 6 -27 -5 -15 -18 6 -8 3 -12 -8 -13
-44 -3 -60 -8 -56 -15 3 -5 9 -6 14 -3 5 3 12 1 15 -5 4 -6 3 -10 -2 -9 -4 1
-20 1 -35 0 -23 -1 -28 -6 -29 -28 0 -16 -3 -22 -6 -15 -8 21 -32 14 -26 -8 4
-15 1 -18 -16 -15 -18 3 -21 1 -15 -17 4 -13 2 -18 -4 -14 -12 7 -73 -50 -63
-59 3 -4 2 -6 -4 -5 -23 5 -34 -1 -28 -15 3 -9 2 -15 -3 -14 -19 3 -48 -3 -37
-8 21 -8 15 -23 -8 -23 -15 0 -19 -4 -15 -16 5 -13 2 -15 -13 -11 -15 3 -18 1
-14 -11 4 -10 2 -13 -5 -8 -8 5 -10 2 -6 -9 4 -9 3 -15 -2 -14 -21 4 -26 -2
-14 -17 8 -8 9 -14 4 -13 -28 5 -44 -3 -44 -22 0 -15 -4 -19 -16 -15 -9 4 -14
1 -12 -6 4 -12 -31 -52 -54 -61 -8 -3 -5 -6 7 -7 18 -1 17 -2 -5 -15 -14 -7
-24 -16 -22 -19 6 -16 1 -25 -12 -20 -10 4 -15 -1 -15 -13 -1 -39 -5 -53 -14
-53 -5 0 -6 7 -3 16 3 8 2 12 -4 9 -6 -3 -10 -19 -10 -35 0 -22 -4 -28 -15
-24 -11 5 -15 -1 -15 -25 0 -21 -5 -31 -15 -31 -15 0 -17 -6 -18 -47 0 -12 -3
-22 -6 -21 -16 2 -31 -3 -30 -9 4 -22 -2 -33 -13 -27 -7 4 -10 4 -6 -1 4 -4 3
-17 -3 -28 -8 -15 -8 -18 1 -12 7 4 4 -5 -6 -21 -11 -15 -18 -29 -16 -31 1 -2
2 -11 1 -20 -1 -12 -4 -10 -9 7 -7 22 -8 21 -10 -15 -2 -22 -3 -47 -3 -57 0
-10 -5 -14 -13 -11 -13 5 -20 -32 -15 -74 1 -7 -3 -13 -9 -13 -6 0 -8 5 -5 10
3 6 1 10 -5 10 -8 0 -9 -11 -5 -31 4 -19 3 -29 -3 -26 -5 4 -8 -8 -6 -29 2
-28 -2 -37 -19 -44 -17 -7 -18 -9 -5 -9 9 -1 20 -5 23 -11 4 -6 -1 -7 -12 -3
-16 6 -17 5 -3 -12 9 -11 10 -16 3 -11 -14 8 -14 7 -18 -47 -1 -21 -5 -40 -8
-44 -4 -3 -2 -14 4 -24 5 -11 6 -19 2 -18 -27 5 -34 -2 -19 -17 9 -8 16 -21
15 -27 0 -9 -2 -8 -6 1 -2 6 -8 12 -12 12 -10 0 -8 -31 4 -49 5 -9 4 -12 -2
-8 -14 9 -13 -194 1 -212 8 -11 8 -13 0 -8 -8 4 -11 -15 -11 -64 0 -60 2 -69
16 -64 15 5 15 4 0 -8 -17 -13 -19 -73 -2 -70 5 1 10 -4 10 -12 0 -7 -7 -11
-16 -8 -13 4 -13 2 1 -10 23 -18 23 -28 1 -20 -14 5 -14 2 3 -13 13 -12 20
-28 17 -43 -2 -14 2 -28 9 -33 8 -4 8 -8 2 -8 -6 0 -11 -7 -11 -15 0 -10 6
-14 16 -10 8 3 12 3 8 -1 -4 -4 -1 -14 6 -22 10 -13 9 -14 -8 -4 -17 9 -21 7
-21 -7 0 -10 7 -18 16 -17 11 1 15 -9 15 -32 0 -18 7 -37 15 -42 10 -7 11 -10
3 -10 -7 0 -13 -4 -13 -10 0 -5 6 -7 13 -4 8 3 13 -4 14 -18 2 -57 8 -78 22
-78 11 0 10 -3 -4 -13 -14 -11 -15 -16 -5 -22 9 -5 11 -4 6 3 -4 7 -2 12 3 12
6 0 12 -11 12 -25 2 -38 3 -43 13 -52 5 -5 6 -3 2 4 -4 7 -2 13 3 13 6 0 11
-13 11 -30 0 -17 5 -30 13 -30 8 0 7 -4 -3 -10 -12 -8 -10 -10 10 -11 14 0 19
-3 12 -6 -9 -4 -10 -8 -2 -18 6 -7 9 -18 8 -25 -2 -7 3 -15 11 -18 9 -3 11 0
6 8 -5 8 -4 11 3 6 6 -3 9 -20 7 -36 -3 -22 1 -31 16 -35 10 -4 19 -11 19 -16
0 -6 -6 -7 -12 -4 -7 4 -4 0 6 -9 10 -8 22 -13 26 -11 6 4 10 -10 11 -47 0
-10 5 -21 11 -24 7 -4 8 -2 4 4 -4 7 -2 12 3 12 6 0 12 -9 12 -20 3 -41 4 -45
19 -45 9 0 15 -9 14 -21 -1 -17 3 -20 19 -16 16 4 18 1 12 -17 -3 -12 -3 -21
2 -20 4 1 15 1 23 0 13 -1 13 -2 0 -11 -12 -8 -11 -10 6 -10 21 0 49 -43 39
-60 -3 -4 3 -7 13 -6 11 1 16 -5 14 -17 -2 -9 1 -17 5 -16 23 4 35 -2 29 -16
-3 -10 -1 -15 7 -13 7 2 12 0 12 -3 0 -12 28 -39 36 -33 5 3 9 0 9 -6 0 -7 7
-10 14 -7 10 4 13 1 10 -7 -3 -8 5 -21 18 -30 13 -9 23 -21 23 -28 0 -10 18
-17 52 -20 6 -1 9 -7 6 -15 -3 -7 -10 -10 -16 -6 -5 3 -7 1 -4 -4 4 -6 18 -8
32 -5 20 3 25 0 25 -16 0 -16 6 -20 25 -17 20 2 23 0 14 -12 -10 -11 -8 -12 6
-7 13 5 16 4 11 -4 -7 -11 13 -17 38 -13 5 1 6 -6 2 -15 -5 -12 -2 -15 12 -12
10 3 27 -1 37 -8 10 -8 14 -14 9 -14 -6 0 -16 6 -23 13 -10 10 -11 9 -6 -3 3
-8 17 -20 30 -27 14 -6 23 -7 19 -2 -3 5 0 9 5 9 6 0 11 -9 11 -21 0 -12 4
-17 11 -14 15 10 59 -3 56 -17 -1 -6 11 -12 28 -12 17 -1 31 -7 31 -13 1 -7 2
-17 3 -22 0 -6 13 -6 30 -1 24 7 29 5 24 -6 -3 -8 -10 -11 -16 -7 -5 3 -7 2
-4 -4 4 -6 18 -9 32 -8 18 2 25 -2 25 -13 0 -14 2 -14 9 -3 7 10 12 11 27 1
18 -11 18 -11 -1 -5 -16 5 -17 4 -8 -6 6 -6 32 -12 57 -12 25 0 43 -4 40 -9
-3 -4 -11 -5 -17 -2 -7 4 -8 3 -4 -1 9 -10 27 -14 80 -18 20 -2 43 -10 50 -17
10 -12 9 -12 -5 -2 -11 9 -18 10 -23 2 -7 -11 -5 -11 65 -16 57 -3 77 -8 87
-19 5 -4 1 -5 -7 0 -9 5 -12 5 -7 -1 5 -5 27 -10 50 -11 68 -2 69 -2 61 -15
-4 -7 -4 -10 1 -6 4 4 15 2 24 -4 13 -10 14 -10 4 2 -21 23 -15 35 8 14 15
-14 37 -19 84 -19 35 -1 62 2 59 6 -2 4 1 11 7 15 7 4 9 3 6 -3 -4 -6 0 -14 9
-17 22 -8 26 -8 19 3 -3 5 -1 13 5 16 6 4 9 1 8 -7 -2 -9 16 -13 75 -14 49 0
77 3 77 10 0 8 3 8 8 0 8 -12 123 -14 116 -2 -3 4 -12 5 -22 2 -15 -5 -15 -4
1 6 14 9 22 9 34 -1 12 -11 17 -11 27 1 6 9 23 14 39 12 16 -2 34 2 42 8 9 7
15 8 19 1 4 -6 13 -8 21 -5 8 4 12 10 9 15 -3 5 -10 6 -16 3 -7 -4 -8 -2 -4 5
5 8 12 9 19 3 7 -5 21 -7 32 -5 11 2 37 5 57 5 21 0 35 4 33 8 -3 5 0 12 6 16
7 4 9 3 5 -4 -3 -6 -2 -13 4 -17 5 -3 10 -2 10 4 0 6 6 8 14 5 8 -3 17 0 22 7
5 8 3 10 -7 4 -11 -6 -12 -5 -2 5 10 11 15 11 29 -1 12 -9 15 -10 10 -1 -7 11
16 17 52 13 6 -1 20 3 30 9 14 9 12 10 -10 5 -16 -3 -28 -2 -28 3 0 5 24 9 53
11 34 1 56 7 64 18 7 8 24 16 38 16 14 0 25 5 25 13 0 8 5 14 11 14 5 0 8 -4
4 -9 -3 -5 0 -13 6 -17 7 -4 9 -3 6 3 -9 14 45 51 84 58 19 3 36 11 40 17 4 6
21 12 39 14 36 4 54 14 27 14 -9 0 -17 4 -17 8 0 7 23 12 67 15 7 0 14 6 17
14 3 7 12 13 21 13 14 0 20 12 16 33 -1 5 3 6 8 2 14 -8 62 5 55 16 -3 5 -10
6 -16 3 -6 -4 -8 -2 -5 4 4 5 18 9 32 7 19 -2 25 2 25 18 0 17 2 18 17 6 9 -8
14 -9 10 -3 -3 6 1 20 9 30 12 14 14 15 11 3 -3 -9 1 -16 8 -16 7 0 10 8 7 19
-3 13 0 17 11 12 8 -3 18 0 23 7 4 8 3 10 -4 5 -7 -4 -12 -2 -12 3 0 6 7 12
15 12 8 1 20 3 25 4 6 1 13 3 18 4 4 1 0 6 -8 11 -13 9 -13 10 0 11 8 1 18 1
23 0 4 0 7 9 7 21 0 21 0 21 16 2 8 -10 13 -13 9 -6 -3 6 -1 12 5 12 6 0 10 8
8 17 -2 10 3 18 12 18 8 1 14 7 12 15 -3 11 0 11 13 0 13 -11 14 -10 9 5 -5
13 -4 16 4 11 7 -4 12 -2 12 4 0 6 4 9 9 6 8 -5 23 17 25 37 1 5 9 14 18 21
10 7 17 15 15 17 -1 2 4 -3 12 -11 12 -13 13 -13 7 3 -4 14 0 20 14 24 11 3
20 12 20 19 0 8 7 14 15 14 9 0 12 6 9 15 -4 10 0 15 10 15 9 0 19 7 22 15 4
8 13 15 22 15 13 0 12 3 -4 15 -19 14 -18 14 4 15 16 0 22 6 22 21 0 15 5 19
15 15 10 -3 15 1 15 14 0 10 5 22 12 26 7 5 8 3 3 -6 -5 -9 -4 -11 3 -6 7 4
12 14 12 22 0 8 8 14 18 14 15 1 15 2 -3 17 -16 13 -17 15 -2 10 9 -4 17 -2
17 4 0 6 4 8 9 4 5 -3 13 0 17 6 4 7 3 9 -4 5 -6 -3 -13 -2 -17 4 -5 9 7 14
27 11 4 0 5 9 3 21 -3 11 -2 18 2 15 8 -9 32 24 33 46 0 9 7 17 16 17 10 0 14
6 10 15 -3 8 6 27 19 43 14 16 21 33 17 37 -4 4 4 4 18 1 21 -6 22 -5 8 4 -10
6 -18 16 -18 23 0 8 3 8 9 -1 7 -11 9 -10 15 3 3 9 11 13 17 9 8 -4 9 -3 5 5
-4 6 -12 9 -17 6 -5 -4 -9 -1 -9 4 0 10 14 15 33 12 5 -1 6 3 2 9 -4 6 -1 17
5 25 8 10 9 15 2 15 -6 0 -9 7 -6 15 4 8 10 13 14 10 14 -8 24 16 23 56 0 28
3 36 13 32 9 -3 14 2 15 13 3 62 8 97 14 102 4 4 5 -4 3 -17 -2 -14 2 -25 10
-27 7 -1 8 0 3 2 -6 3 -7 12 -4 21 3 8 6 27 7 42 1 16 6 25 14 23 8 -1 11 2 7
8 -3 6 -11 8 -16 5 -5 -3 -6 1 -3 9 3 9 11 13 18 9 6 -3 8 -3 4 2 -4 4 -3 16
3 27 10 18 8 19 -13 14 -12 -3 -17 -3 -10 0 6 3 9 11 6 16 -4 7 -2 8 4 4 11
-7 16 17 15 81 0 14 6 23 16 23 14 1 14 2 1 10 -20 11 -20 72 0 78 9 2 11 0 5
-5 -13 -10 -13 -28 -1 -40 5 -5 6 -3 2 5 -4 6 -3 12 2 12 12 0 3 81 -10 98 -8
9 -7 11 4 7 17 -7 21 23 5 43 -6 8 -6 12 2 12 6 0 11 5 11 11 0 5 -5 7 -12 3
-7 -5 -8 -3 -3 6 15 25 9 128 -9 145 -18 19 -21 35 -5 35 5 0 8 -4 4 -9 -3 -5
-1 -12 4 -15 5 -4 12 -2 15 3 4 5 2 12 -3 16 -5 3 -8 14 -6 25 2 12 0 18 -6
15 -5 -4 -6 -11 -3 -17 4 -6 2 -8 -3 -5 -6 4 -10 18 -10 32 0 22 2 24 16 13
14 -11 14 -10 -1 7 -9 12 -15 34 -14 53 1 17 -2 32 -6 32 -5 0 -4 9 2 19 7 13
7 22 0 26 -5 3 -10 1 -10 -5 0 -6 -5 -8 -11 -4 -8 5 -6 10 5 16 20 11 21 37 2
44 -10 4 -14 19 -13 50 2 42 -6 57 -16 32 -4 -10 -6 -10 -6 -1 -1 6 4 15 9 18
13 8 13 35 -1 35 -5 0 -8 -4 -4 -9 3 -5 1 -12 -3 -15 -5 -3 -9 5 -8 17 1 12 7
21 14 20 6 -2 9 4 5 13 -5 13 -7 13 -14 2 -6 -9 -9 -7 -9 10 0 12 0 25 1 28 0
3 -8 12 -18 19 -10 7 -14 17 -10 21 4 5 12 2 17 -6 8 -12 10 -12 10 -2 0 8 -8
16 -19 19 -13 3 -17 12 -15 34 4 29 -10 40 -19 17 -3 -7 -5 -4 -6 7 -3 58 -9
96 -16 103 -5 4 -5 2 -1 -5 3 -6 2 -14 -3 -17 -5 -3 -12 14 -15 39 -4 25 -14
49 -23 53 -8 5 -16 20 -16 34 -1 16 -7 24 -14 21 -8 -3 -13 4 -13 18 0 18 -3
20 -9 10 -7 -10 -11 -8 -16 10 -4 13 -13 27 -19 31 -8 6 -7 8 2 8 6 0 12 5 12
11 0 5 -4 7 -10 4 -5 -3 -15 5 -22 19 -6 14 -17 26 -24 26 -7 0 -11 6 -8 14 3
9 -3 17 -16 21 -12 4 -20 14 -18 23 4 25 -10 42 -30 35 -14 -6 -15 -4 -5 8 9
11 8 18 -2 32 -13 18 -13 18 -18 0 -4 -14 -5 -14 -6 5 0 12 -6 21 -13 20 -7
-2 -13 2 -13 7 -3 31 -19 55 -35 55 -14 0 -18 5 -13 17 4 11 3 14 -5 9 -7 -4
-12 -2 -12 4 0 7 -7 9 -16 6 -14 -5 -15 -4 -4 9 7 9 10 18 6 22 -3 3 -6 1 -6
-7 0 -10 -3 -10 -15 0 -8 7 -12 17 -8 24 4 6 -1 5 -10 -3 -15 -12 -17 -12 -11
3 4 10 1 16 -9 16 -9 0 -18 9 -22 19 -4 14 -12 17 -28 14 -22 -5 -22 -5 -2 10
19 16 19 16 -12 17 -18 0 -33 5 -33 11 0 5 5 7 10 4 6 -3 10 -4 10 -1 0 3 -10
10 -21 17 -17 9 -20 8 -14 -2 5 -8 4 -10 -3 -5 -7 4 -12 14 -12 22 0 8 -5 14
-11 14 -5 0 -8 -4 -4 -9 3 -5 1 -13 -5 -16 -6 -4 -10 -3 -9 2 4 22 -2 35 -15
30 -8 -3 -17 1 -20 9 -4 10 -2 13 7 8 7 -4 8 -3 4 2 -5 5 -16 9 -25 9 -10 0
-16 7 -16 17 1 10 -1 17 -5 16 -21 -2 -74 4 -63 9 6 2 9 9 6 14 -3 6 -11 5
-20 -2 -12 -10 -15 -10 -12 2 2 10 -4 13 -21 11 -15 -2 -21 0 -16 7 7 13 -33
31 -52 24 -7 -3 -13 -1 -13 5 0 6 6 13 13 15 11 5 -46 11 -66 8 -5 -1 -6 3 -2
9 3 5 0 10 -9 10 -8 0 -16 4 -18 10 -1 5 -20 10 -40 12 -20 1 -36 4 -36 7 2
23 -5 29 -26 25 -14 -2 -27 0 -31 6 -4 6 1 7 11 3 12 -4 15 -3 10 6 -4 6 -16
11 -25 9 -10 -2 -26 4 -36 12 -11 9 -16 10 -11 3 4 -7 2 -13 -3 -13 -6 0 -11
7 -11 15 0 9 -9 15 -22 15 -45 0 -77 4 -76 10 0 3 0 12 -1 20 -1 13 -2 13 -11
0 -5 -8 -10 -10 -10 -4 0 6 -16 10 -40 8 -22 -1 -40 2 -40 7 0 5 5 8 11 6 6
-1 14 5 16 13 3 9 1 11 -4 5 -7 -9 -27 -12 -35 -6 -3 3 -113 10 -185 13 -23 1
-39 6 -37 10 3 5 10 5 16 2 6 -4 8 -2 5 3 -10 15 -66 10 -78 -7 -9 -13 -10
-12 -5 2 3 10 1 20 -4 23 -6 4 -10 2 -10 -3 0 -5 -7 -9 -15 -9 -8 0 -15 6 -15
14 0 7 -5 13 -11 13 -5 0 -7 -5 -3 -12 5 -7 3 -8 -6 -3 -10 6 -12 4 -7 -9 4
-10 3 -15 -3 -11 -6 3 -10 13 -10 22 0 14 -3 13 -22 -3 l-23 -19 19 23 c11 12
24 22 30 21 6 -1 33 -1 59 0 36 1 46 4 41 14 -5 7 0 6 11 -3 17 -13 18 -13 13
1 -5 13 1 16 30 14 21 -1 45 2 56 7 13 7 16 7 12 -1 -4 -7 -1 -9 8 -5 8 3 29
7 48 8 18 2 32 8 31 15 -2 6 8 12 22 12 46 3 69 14 59 31 -4 7 -2 8 5 4 6 -4
9 -11 6 -16 -3 -5 0 -12 6 -16 8 -5 9 -3 5 5 -5 8 0 14 13 18 12 3 21 13 22
22 0 14 1 14 7 1 4 -8 13 -16 21 -18 12 -3 12 0 1 12 -10 14 -10 16 6 17 49 2
79 12 91 29 8 11 20 17 28 14 9 -4 30 9 51 30 28 28 35 31 31 16 -3 -11 -1
-18 4 -14 5 3 9 12 9 20 0 8 4 13 9 9 5 -3 12 -1 16 4 3 6 13 7 23 4 13 -4 13
-2 -3 10 -20 16 -20 16 3 12 14 -3 22 1 22 11 0 19 42 36 52 20 7 -10 13 5 9
27 -1 6 40 12 62 8 5 -1 6 3 2 8 -3 6 -12 8 -19 5 -8 -3 -16 -1 -19 3 -3 5 11
9 31 9 31 0 37 3 36 21 -1 15 3 19 17 16 22 -6 25 7 7 27 -11 12 -10 12 2 3
11 -7 23 -7 45 3 26 11 27 19 2 15 -5 -1 -6 3 -2 8 3 6 12 8 20 4 10 -3 15 1
16 13 0 18 1 17 9 -1 6 -14 9 -16 10 -5 2 8 2 18 1 23 0 4 8 7 18 7 11 0 23 5
27 12 5 7 3 8 -6 3 -9 -5 -11 -4 -6 3 4 7 14 12 22 12 8 0 14 7 14 15 0 8 7
15 15 15 8 0 15 6 15 13 0 8 4 7 10 -3 8 -12 10 -12 10 -1 0 9 7 11 21 8 16
-4 18 -3 9 8 -9 10 -5 13 20 11 24 -2 29 1 25 13 -3 10 0 9 10 -3 8 -11 15
-14 15 -8 0 7 5 12 11 12 5 0 7 -6 4 -12 -4 -7 3 -3 14 10 11 13 23 23 27 22
4 0 9 5 10 13 1 7 -9 14 -24 15 -14 1 -31 7 -37 13 -7 8 -3 9 15 4 24 -7 24
-7 5 8 -13 10 -24 12 -32 6 -14 -12 -27 6 -17 24 4 6 3 9 -1 4 -5 -4 -19 0
-33 9 -15 10 -21 11 -17 3 5 -8 4 -10 -3 -5 -7 4 -12 14 -12 22 0 8 -4 13 -9
10 -4 -3 -19 4 -32 15 -14 12 -33 19 -46 16 -14 -2 -20 0 -16 6 4 6 0 8 -10 4
-11 -4 -17 -1 -17 8 0 14 -17 20 -47 16 -6 -1 -15 4 -19 10 -4 7 -3 9 2 6 6
-3 16 -2 24 3 12 7 11 9 -5 9 -61 1 -110 8 -107 16 5 12 -26 23 -60 21 -22 -2
-25 1 -16 11 8 11 7 12 -6 7 -9 -3 -16 -2 -16 2 0 5 -14 10 -30 11 -22 2 -29
-1 -23 -10 4 -7 0 -6 -11 2 -13 11 -14 16 -4 22 8 5 4 8 -12 6 -14 0 -31 -8
-38 -17 -8 -8 -11 -9 -7 -3 3 7 1 21 -4 30 -10 17 -11 16 -12 -2 -1 -11 0 -24
1 -30 1 -5 -2 -6 -7 -2 -4 5 -8 13 -8 18 0 5 -4 8 -10 7 -5 -2 -9 -7 -7 -13 1
-5 -10 4 -24 20 -14 17 -23 24 -20 18 5 -8 1 -13 -8 -13 -9 0 -16 8 -17 18 -1
11 -4 9 -9 -8 -4 -14 -8 -20 -9 -14 -1 12 -80 12 -102 -1 -11 -6 -12 -5 -1 6
6 7 12 18 12 24 0 5 -4 4 -8 -3 -12 -18 -59 -24 -83 -11 -12 6 -19 7 -15 1 3
-5 -1 -13 -10 -16 -13 -5 -15 -2 -11 14 7 26 1 26 -13 -1z m-50 -27 c0 -4 -10
-9 -22 -9 -18 -2 -20 0 -8 7 18 12 30 13 30 2z m865 -170 c-3 -3 -11 0 -18 7
-9 10 -8 11 6 5 10 -3 15 -9 12 -12z m-1450 -92 c3 -5 1 -10 -4 -10 -6 0 -11
5 -11 10 0 6 2 10 4 10 3 0 8 -4 11 -10z m975 -455 c0 -2 -10 -9 -22 -15 -22
-11 -22 -10 -4 4 21 17 26 19 26 11z m-85 -45 c-3 -5 -11 -10 -16 -10 -6 0 -7
5 -4 10 3 6 11 10 16 10 6 0 7 -4 4 -10z m-1308 -50 c-1 -11 -5 -20 -9 -20
-10 0 -10 4 -2 24 8 22 13 20 11 -4z m1036 -45 c-3 -9 -8 -14 -10 -11 -3 3 -2
9 2 15 9 16 15 13 8 -4z m-28 -5 c-3 -5 -12 -10 -18 -10 -7 0 -6 4 3 10 19 12
23 12 15 0z m-1550 -40 c-3 -5 -12 -10 -18 -10 -7 0 -6 4 3 10 19 12 23 12 15
0z m1250 -20 c-3 -5 -12 -10 -18 -10 -7 0 -6 4 3 10 19 12 23 12 15 0z m395
-70 c0 -5 -5 -10 -11 -10 -5 0 -7 5 -4 10 3 6 8 10 11 10 2 0 4 -4 4 -10z
m-1370 -64 c0 -3 -4 -8 -10 -11 -5 -3 -10 -1 -10 4 0 6 5 11 10 11 6 0 10 -2
10 -4z m2050 -226 c0 -5 -4 -10 -10 -10 -5 0 -10 5 -10 10 0 6 5 10 10 10 6 0
10 -4 10 -10z m355 -290 c3 -5 1 -10 -4 -10 -6 0 -11 5 -11 10 0 6 2 10 4 10
3 0 8 -4 11 -10z m-3162 -225 c-3 -9 -8 -14 -10 -11 -3 3 -2 9 2 15 9 16 15
13 8 -4z m3447 -184 c0 -6 -4 -12 -8 -15 -5 -3 -9 1 -9 9 0 8 4 15 9 15 4 0 8
-4 8 -9z m160 -480 c0 -6 -4 -12 -8 -15 -5 -3 -9 1 -9 9 0 8 4 15 9 15 4 0 8
-4 8 -9z m33 -298 c-3 -7 -6 -13 -8 -13 -2 0 -5 6 -8 13 -3 8 1 14 8 14 7 0
11 -6 8 -14z m-2035 -2108 c-3 -3 -9 2 -12 12 -6 14 -5 15 5 6 7 -7 10 -15 7
-18z m-314 3 c-6 -9 -40 -5 -50 5 -4 3 7 5 24 4 16 -1 28 -5 26 -9z"/>
<path d="M2896 5078 c3 -4 11 -5 19 -1 21 7 19 12 -4 10 -11 0 -18 -5 -15 -9z"/>
<path d="M2995 5080 c3 -5 8 -10 11 -10 2 0 4 5 4 10 0 6 -5 10 -11 10 -5 0
-7 -4 -4 -10z"/>
<path d="M3026 5082 c-3 -5 1 -9 9 -9 8 0 12 4 9 9 -3 4 -7 8 -9 8 -2 0 -6 -4
-9 -8z"/>
<path d="M3436 4985 c-3 -8 -1 -15 4 -15 6 0 10 7 10 15 0 8 -2 15 -4 15 -2 0
-6 -7 -10 -15z"/>
<path d="M3665 4650 c-3 -5 -1 -10 4 -10 6 0 11 5 11 10 0 6 -2 10 -4 10 -3 0
-8 -4 -11 -10z"/>
<path d="M1895 4500 c-3 -5 -1 -10 4 -10 6 0 11 5 11 10 0 6 -2 10 -4 10 -3 0
-8 -4 -11 -10z"/>
<path d="M1865 4440 c3 -5 8 -10 11 -10 2 0 4 5 4 10 0 6 -5 10 -11 10 -5 0
-7 -4 -4 -10z"/>
<path d="M3310 4400 c0 -5 5 -10 10 -10 6 0 10 5 10 10 0 6 -4 10 -10 10 -5 0
-10 -4 -10 -10z"/>
<path d="M2670 4139 c0 -4 11 -6 24 -5 13 0 22 4 20 8 -6 9 -44 6 -44 -3z"/>
<path d="M2730 4089 c0 -5 5 -7 10 -4 6 3 10 8 10 11 0 2 -4 4 -10 4 -5 0 -10
-5 -10 -11z"/>
<path d="M3025 4020 c4 -6 11 -8 16 -5 14 9 11 15 -7 15 -8 0 -12 -5 -9 -10z"/>
<path d="M1550 3960 c0 -5 5 -10 11 -10 5 0 7 5 4 10 -3 6 -8 10 -11 10 -2 0
-4 -4 -4 -10z"/>
<path d="M3246 3928 c3 -4 9 -8 15 -8 5 0 9 4 9 8 0 5 -7 9 -15 9 -8 0 -12 -4
-9 -9z"/>
<path d="M4045 3320 c3 -5 8 -10 11 -10 2 0 4 5 4 10 0 6 -5 10 -11 10 -5 0
-7 -4 -4 -10z"/>
<path d="M450 2740 c0 -5 5 -10 11 -10 5 0 7 5 4 10 -3 6 -8 10 -11 10 -2 0
-4 -4 -4 -10z"/>
<path d="M387 2539 c7 -7 15 -10 18 -7 3 3 -2 9 -12 12 -14 6 -15 5 -6 -5z"/>
<path d="M4177 1303 c-4 -3 -7 -11 -7 -17 0 -6 5 -5 12 2 6 6 9 14 7 17 -3 3
-9 2 -12 -2z"/>
<path d="M610 1071 c0 -5 5 -13 10 -16 6 -3 10 -2 10 4 0 5 -4 13 -10 16 -5 3
-10 2 -10 -4z"/>
<path d="M770 844 c0 -8 5 -12 10 -9 6 4 8 11 5 16 -9 14 -15 11 -15 -7z"/>
<path d="M3795 821 c-3 -5 -2 -12 3 -15 5 -3 9 1 9 9 0 17 -3 19 -12 6z"/>
<path d="M1321 394 c0 -11 3 -14 6 -6 3 7 2 16 -1 19 -3 4 -6 -2 -5 -13z"/>
<path d="M1377 363 c3 -7 6 -13 8 -13 2 0 5 6 8 13 3 8 -1 14 -8 14 -7 0 -11
-6 -8 -14z"/>
<path d="M3153 370 c-13 -5 -23 -11 -23 -14 0 -8 30 0 42 12 14 14 11 14 -19
2z"/>
<path d="M2676 198 c3 -5 10 -6 15 -3 13 9 11 12 -6 12 -8 0 -12 -4 -9 -9z"/>
</g>
</svg>
